Coordinates
version=1
nRows=10
nColumns=63
inDegrees=yes

Units are S.I. units (second, meters, Newtons, ...)
If the header above contains a line with 'inDegrees', this indicates whether rotational values are in degrees (yes) or radians (no).

endheader
time	pelvis_tilt	pelvis_list	pelvis_rotation	pelvis_tx	pelvis_ty	pelvis_tz	hip_flexion_r	hip_adduction_r	hip_rotation_r	knee_angle_r	knee_angle_r_beta	ankle_angle_r	subtalar_angle_r	mtp_angle_r	hip_flexion_l	hip_adduction_l	hip_rotation_l	knee_angle_l	knee_angle_l_beta	ankle_angle_l	subtalar_angle_l	mtp_angle_l	L5_S1_Flex_Ext	L5_S1_Lat_Bending	L5_S1_axial_rotation	L4_L5_Flex_Ext	L4_L5_Lat_Bending	L4_L5_axial_rotation	L3_L4_Flex_Ext	L3_L4_Lat_Bending	L3_L4_axial_rotation	L2_L3_Flex_Ext	L2_L3_Lat_Bending	L2_L3_axial_rotation	L1_L2_Flex_Ext	L1_L2_Lat_Bending	L1_L2_axial_rotation	L1_T12_Flex_Ext	L1_T12_Lat_Bending	L1_T12_axial_rotation	Abs_r3	Abs_r2	Abs_r1	Abs_t1	Abs_t2	neck_flexion	neck_bending	neck_rotation	arm_flex_r	arm_add_r	arm_rot_r	elbow_flex_r	pro_sup_r	wrist_flex_r	wrist_dev_r	arm_flex_l	arm_add_l	arm_rot_l	elbow_flex_l	pro_sup_l	wrist_flex_l	wrist_dev_l
      1.74576271	     -1.86155984	     -4.42014838	     89.38339879	      0.19556002	      0.87851209	      0.63374994	      0.12464533	     -2.88720349	     -1.11539321	      4.94150429	      0.08624552	     23.32219814	     12.57979174	      0.00000000	      2.57008796	      2.28386435	      5.22823736	      9.81914205	      0.17137636	     23.69773647	     -5.38607383	      0.00000000	     -0.04482185	     -0.37412494	     -1.63197283	     -0.08323865	     -0.49758617	     -1.73397113	     -0.07363781	     -0.90964738	     -1.73397113	     -0.05122689	     -0.90964738	     -1.42797623	     -0.04162157	     -0.76291558	     -1.32597793	     -0.02561120	     -0.57951954	     -1.22397962	     -0.32015797	     -4.23217617	     -9.07654330	      0.00000000	      0.00000000	     24.76985789	      9.38219256	     -8.64228108	     57.83026322	    -25.85481129	      8.40629159	    147.48964998	     80.01198455	      8.22125229	     21.66953802	     -0.82225204	    -22.87534433	     18.74561323	    128.34813131	     66.44991679	     -6.60147656	     30.12122540
      1.76271186	     -1.87698089	     -4.29220426	     89.17862726	      0.19611298	      0.87869703	      0.63333030	      0.05993534	     -2.87673934	     -0.14559005	      5.01248735	      0.08748441	     23.47612075	     11.54074402	      0.00000000	      2.30866355	      2.33054245	      5.72307877	      9.66188004	      0.16863162	     23.36857949	     -6.55518924	      0.00000000	     -0.03593159	     -0.38233953	     -1.59030969	     -0.06672856	     -0.50851157	     -1.68970405	     -0.05903201	     -0.92962032	     -1.68970405	     -0.04106622	     -0.92962032	     -1.39152098	     -0.03336608	     -0.77966676	     -1.29212663	     -0.02053131	     -0.59224393	     -1.19273227	     -0.25665578	     -4.32510119	     -8.84482542	      0.00000000	      0.00000000	     24.33268479	      9.67633665	     -8.31609570	     57.43088761	    -25.79118633	      8.31211916	    147.33430578	     78.88772143	      8.73803309	     22.07467817	     -0.84238121	    -22.98245478	     18.87218607	    128.36453602	     65.42057907	     -6.53148208	     30.66675860
      1.77966102	     -1.88486310	     -4.19482419	     89.20824850	      0.19647429	      0.87893300	      0.63290337	      0.00669951	     -2.87971975	     -0.13390394	      5.10755448	      0.08914364	     23.71101962	     11.44952533	      0.00000000	      2.14035595	      2.27323555	      5.30651613	      9.62470679	      0.16798282	     23.29684431	     -6.00390650	      0.00000000	     -0.02392500	     -0.39288346	     -1.58149266	     -0.04443112	     -0.52253500	     -1.68033595	     -0.03930638	     -0.95525684	     -1.68033595	     -0.02734388	     -0.95525684	     -1.38380608	     -0.02221676	     -0.80116795	     -1.28496278	     -0.01367075	     -0.60857648	     -1.18611949	     -0.17089388	     -4.44437624	     -8.79578772	      0.00000000	      0.00000000	     23.83406559	      9.96848577	     -8.06983046	     56.74515189	    -25.91637310	      8.04997615	    147.38463458	     78.07827721	      9.09021495	     22.37427958	     -0.90393013	    -23.20499241	     19.03210258	    128.37058175	     64.48743916	     -5.95371167	     31.18014208
      1.79661017	     -1.88871244	     -4.10667927	     89.02379193	      0.19685648	      0.87906504	      0.63246124	     -0.00159514	     -2.87819341	      0.56366530	      5.21659401	      0.09104674	     23.87047463	     10.75601868	      0.00000000	      1.90285556	      2.38537624	      6.51807805	      9.47982408	      0.16545414	     22.42563182	     -8.28581265	      0.00000000	     -0.01425496	     -0.40109119	     -1.52484633	     -0.02647288	     -0.53345128	     -1.62014922	     -0.02341947	     -0.97521312	     -1.62014922	     -0.01629199	     -0.97521312	     -1.33424054	     -0.01323715	     -0.81790515	     -1.23893764	     -0.00814528	     -0.62129025	     -1.14363475	     -0.10182173	     -4.53722375	     -8.48073783	      0.00000000	      0.00000000	     23.50828313	     10.13759367	     -8.05736972	     56.01941593	    -26.20847736	      7.45533521	    147.45326179	     75.91962012	     10.18469337	     22.87532027	     -0.86671551	    -23.32639203	     19.24988300	    128.37868224	     63.81271993	     -5.89059936	     31.62431449
      1.81355932	     -1.87981537	     -4.04040095	     88.91443426	      0.19729244	      0.87919177	      0.63216803	     -0.00642336	     -2.85659000	      0.99111314	      5.31511761	      0.09276630	     23.96804148	     10.32471929	      0.00000000	      1.81175918	      2.32482682	      5.86909050	      9.55611634	      0.16678569	     22.31073038	     -7.62895691	      0.00000000	     -0.00657555	     -0.40807971	     -1.47777817	     -0.01221145	     -0.54274601	     -1.57013931	     -0.01080297	     -0.99220500	     -1.57013931	     -0.00751519	     -0.99220500	     -1.29305590	     -0.00610605	     -0.83215613	     -1.20069476	     -0.00375727	     -0.63211546	     -1.10833363	     -0.04696849	     -4.61627924	     -8.21895885	      0.00000000	      0.00000000	     23.38968582	     10.06782814	     -8.21958075	     55.22341174	    -26.42451728	      6.79561898	    147.66955577	     74.38518246	     11.09142836	     23.61066351	     -0.69795984	    -23.44193008	     19.39294540	    128.28661354	     63.44430926	     -6.22432354	     31.56326274
      1.83050847	     -1.91420100	     -3.99024178	     88.83732716	      0.19753043	      0.87916714	      0.63185423	      0.02394689	     -2.92086452	      0.70788948	      5.51541901	      0.09626222	     24.19647455	     10.84381940	      0.00000000	      1.65173252	      2.43088179	      6.63895084	      9.43100256	      0.16460205	     21.63508573	     -9.02583930	      0.00000000	      0.00238138	     -0.41406573	     -1.47093983	      0.00442246	     -0.55070743	     -1.56287357	      0.00391237	     -1.00675943	     -1.56287357	      0.00272168	     -1.00675943	     -1.28707235	      0.00221135	     -0.84436284	     -1.19513861	      0.00136072	     -0.64138782	     -1.10320487	      0.01700995	     -4.68399439	     -8.18092607	      0.00000000	      0.00000000	     23.46285130	     10.02939275	     -7.99777002	     54.64091333	    -26.50856724	      6.45050792	    147.63651780	     72.88367879	     12.19588386	     23.71097343	     -0.61554547	    -23.46880491	     19.24629620	    128.29102797	     63.50576205	     -7.53183667	     31.30880923
      1.84745763	     -1.96213921	     -3.96768237	     88.83417892	      0.19757657	      0.87904749	      0.63165519	      0.06015982	     -2.99450411	      0.35833331	      5.72753468	      0.09996434	     24.31014460	     11.29516442	      0.00000000	      1.57921905	      2.53999916	      7.27966280	      9.37930173	      0.16369970	     21.17947944	    -10.06169003	      0.00000000	      0.01076817	     -0.42034755	     -1.47201962	      0.01999757	     -0.55906225	     -1.56402085	      0.01769103	     -1.02203304	     -1.56402085	      0.01230694	     -1.02203304	     -1.28801717	      0.00999932	     -0.85717273	     -1.19601594	      0.00615293	     -0.65111836	     -1.10401471	      0.07691597	     -4.75505560	     -8.18693152	      0.00000000	      0.00000000	     23.75189357	      9.78011147	     -8.03671516	     54.21135603	    -26.58226883	      6.22876704	    147.56673418	     71.23146463	     13.12962345	     23.80865803	     -0.39555178	    -23.40912723	     18.95555818	    128.13879234	     63.74638065	     -8.54897269	     30.74189238
      1.86440678	     -1.97924300	     -3.93988159	     88.64827829	      0.19786724	      0.87888261	      0.63165041	      0.15085081	     -3.05540903	     -0.22034486	      6.02136430	      0.10509263	     24.41523460	     12.34698988	      0.00000000	      1.55381940	      2.52679886	      6.65032015	      9.41085867	      0.16425047	     21.34764104	     -9.35284841	      0.00000000	      0.01189028	     -0.42031037	     -1.43362823	      0.02208144	     -0.55901280	     -1.52322999	      0.01953454	     -1.02194264	     -1.52322999	      0.01358940	     -1.02194264	     -1.25442470	      0.01104131	     -0.85709692	     -1.16482293	      0.00679410	     -0.65106077	     -1.07522117	      0.08493107	     -4.75463502	     -7.97341011	      0.00000000	      0.00000000	     24.20691518	      9.40972476	     -8.11991608	     54.05570319	    -26.67753825	      6.21448079	    147.48460014	     69.90661585	     13.57227163	     23.99693820	     -0.01099925	    -23.44004509	     18.92583869	    127.96540709	     64.50132899	    -10.45867042	     29.64302511
      1.88135593	     -1.97717679	     -3.95911868	     88.75923026	      0.19758198	      0.87864343	      0.63160366	      0.21264688	     -3.09997667	     -1.08359295	      6.25984407	      0.10925489	     24.44223663	     13.36261137	      0.00000000	      1.56946913	      2.57942409	      7.25936408	      9.39567926	      0.16398554	     21.26035505	    -10.00369074	      0.00000000	      0.01869038	     -0.41543294	     -1.46042597	      0.03470990	     -0.55252581	     -1.55170259	      0.03070642	     -1.01008366	     -1.55170259	      0.02136123	     -1.01008366	     -1.27787272	      0.01735588	     -0.84715086	     -1.18659610	      0.01067968	     -0.64350563	     -1.09531948	      0.13350349	     -4.69946054	     -8.12245112	      0.00000000	      0.00000000	     24.66037131	      9.05652728	     -8.13533303	     54.08996829	    -26.60103033	      6.34667782	    147.24992802	     69.02851579	     14.13091133	     23.94316561	      0.23110047	    -23.41512574	     18.76419273	    127.75992519	     65.28002333	    -11.98460342	     28.41048216
      1.89830508	     -1.94701768	     -3.97212197	     88.75433015	      0.19745813	      0.87845418	      0.63161750	      0.28093020	     -3.10524646	     -1.65187358	      6.47168701	      0.11295225	     24.38703866	     14.13598972	      0.00000000	      1.60432216	      2.54219790	      7.05901473	      9.43885999	      0.16473918	     21.53238869	     -9.60440514	      0.00000000	      0.02240051	     -0.40641009	     -1.45587297	      0.04159998	     -0.54052542	     -1.54686503	      0.03680179	     -0.98814549	     -1.54686503	      0.02560154	     -0.98814549	     -1.27388885	      0.02080111	     -0.82875145	     -1.18289679	      0.01279965	     -0.62952923	     -1.09190473	      0.16000459	     -4.59739221	     -8.09712870	      0.00000000	      0.00000000	     25.05797769	      8.67216449	     -8.17179866	     54.24511159	    -26.59843541	      6.66030145	    147.09389807	     68.37136252	     13.99856779	     23.97580094	      0.45446265	    -23.44093339	     18.80031254	    127.56109719	     66.22131209	    -13.31982623	     27.09711770
